<svg xmlns="http://www.w3.org/2000/svg" viewBox="0 0 284.96 137.33"><defs><style>.cls-1{fill:none;}.cls-2{fill:#00aac6;}.cls-3{fill:#eea622;}.cls-4{fill:#fff;}.cls-5{fill:#0080a4;}.cls-6{fill:#ea992d;}.cls-7{fill:#007391;}.cls-8{fill:#93d4e5;}.cls-9{fill:#094591;}.cls-10{fill:#ffdb07;}</style></defs><title>Fichier 1ldpi</title><g id="Calque_2" data-name="Calque 2"><g id="Calque_1-2" data-name="Calque 1"><path class="cls-1" d="M133.81,82a7.57,7.57,0,0,0-1.62,2.72,7.69,7.69,0,0,0,.13,3.2,5.49,5.49,0,0,1,.11,2.58,5.54,5.54,0,0,1-1.69,2,7.55,7.55,0,0,0-2.05,2.42,7.68,7.68,0,0,0-.4,3.17,5.48,5.48,0,0,1-.32,2.57,5.7,5.7,0,0,1-2,1.69,7.41,7.41,0,0,0-2.43,2,7.51,7.51,0,0,0-.91,3.05,5.68,5.68,0,0,1-.74,2.5,5.79,5.79,0,0,1-2.24,1.33,7.46,7.46,0,0,0-2.74,1.63,7.57,7.57,0,0,0-1.4,2.86,5.69,5.69,0,0,1-1.14,2.34A5.6,5.6,0,0,1,112,119a7.54,7.54,0,0,0-3,1.16,7.4,7.4,0,0,0-1.85,2.59,5.6,5.6,0,0,1-1.51,2.13,5.66,5.66,0,0,1-2.54.53,7.58,7.58,0,0,0-3.13.66,7.4,7.4,0,0,0-2.24,2.25,5.7,5.7,0,0,1-1.85,1.85,5.6,5.6,0,0,1-2.59.1,7.61,7.61,0,0,0-3.19.14,7.28,7.28,0,0,0-2.58,1.84,5.76,5.76,0,0,1-2.13,1.52,5.7,5.7,0,0,1-2.57-.33,7.47,7.47,0,0,0-3.17-.39,7.55,7.55,0,0,0-2.85,1.38,5.58,5.58,0,0,1-2.36,1.15,5.52,5.52,0,0,1-2.46-.74,7.56,7.56,0,0,0-3.08-.91,7.52,7.52,0,0,0-3.08.91,5.59,5.59,0,0,1-2.47.74A5.58,5.58,0,0,1,61,134.46a7.48,7.48,0,0,0-2.85-1.38,3.82,3.82,0,0,0-.68-.06,9.66,9.66,0,0,0-2.49.45,5.7,5.7,0,0,1-2.57.33,5.84,5.84,0,0,1-2.13-1.52,7.28,7.28,0,0,0-2.58-1.84,7.61,7.61,0,0,0-3.19-.14,5.46,5.46,0,0,1-2.59-.11,5.56,5.56,0,0,1-1.85-1.84,7.4,7.4,0,0,0-2.24-2.25,7.56,7.56,0,0,0-3.12-.66,5.68,5.68,0,0,1-2.55-.53,5.71,5.71,0,0,1-1.51-2.13,7.4,7.4,0,0,0-1.85-2.59,7.55,7.55,0,0,0-3-1.16,5.72,5.72,0,0,1-2.43-.94,5.69,5.69,0,0,1-1.14-2.34,7.43,7.43,0,0,0-1.4-2.86,7.46,7.46,0,0,0-2.74-1.63,5.56,5.56,0,0,1-2.23-1.34,5.47,5.47,0,0,1-.75-2.49,7.46,7.46,0,0,0-.91-3.05,7.46,7.46,0,0,0-2.43-2.06,5.58,5.58,0,0,1-2-1.68,5.48,5.48,0,0,1-.32-2.57,7.68,7.68,0,0,0-.4-3.17,7.55,7.55,0,0,0-2-2.42,5.54,5.54,0,0,1-1.69-2,5.49,5.49,0,0,1,.11-2.58,7.69,7.69,0,0,0,.13-3.2A7.43,7.43,0,0,0,4,82a5.58,5.58,0,0,1-1.34-2.25,5.53,5.53,0,0,1,.54-2.53,7.62,7.62,0,0,0,.65-3.14,7.38,7.38,0,0,0-1.14-3,5.57,5.57,0,0,1-.95-2.44,5.61,5.61,0,0,1,1-2.45,7.38,7.38,0,0,0,1.14-2.95,7.65,7.65,0,0,0-.65-3.14,5.49,5.49,0,0,1-.54-2.52A5.45,5.45,0,0,1,4,55.36a7.47,7.47,0,0,0,1.62-2.73,7.65,7.65,0,0,0-.13-3.19,5.53,5.53,0,0,1-.11-2.59,5.52,5.52,0,0,1,1.69-2,7.58,7.58,0,0,0,2.05-2.43,7.64,7.64,0,0,0,.4-3.16,5.53,5.53,0,0,1,.32-2.58,5.58,5.58,0,0,1,2-1.68A7.46,7.46,0,0,0,14.22,33a7.46,7.46,0,0,0,.91-3.05,5.51,5.51,0,0,1,.75-2.49,5.53,5.53,0,0,1,2.24-1.33,7.64,7.64,0,0,0,2.73-1.63,7.5,7.5,0,0,0,1.4-2.86,5.63,5.63,0,0,1,1.14-2.34,5.65,5.65,0,0,1,2.43-.95,7.49,7.49,0,0,0,3-1.16,7.4,7.4,0,0,0,1.85-2.59,5.67,5.67,0,0,1,1.51-2.12,5.57,5.57,0,0,1,2.55-.54,7.38,7.38,0,0,0,3.12-.66A7.48,7.48,0,0,0,40.05,9,5.6,5.6,0,0,1,41.9,7.14,5.59,5.59,0,0,1,44.49,7a7.45,7.45,0,0,0,3.19-.13,7.54,7.54,0,0,0,2.58-1.84,5.61,5.61,0,0,1,2.13-1.52A5.55,5.55,0,0,1,55,3.86a7.64,7.64,0,0,0,3.17.4,4.55,4.55,0,0,0,1.15-.37,12.75,12.75,0,0,0,1.7-1,5.58,5.58,0,0,1,2.36-1.15,5.59,5.59,0,0,1,2.47.74,7.53,7.53,0,0,0,3.08.92A7.58,7.58,0,0,0,72,2.46a5.52,5.52,0,0,1,2.46-.74,5.58,5.58,0,0,1,2.36,1.15,7.57,7.57,0,0,0,2.85,1.39,7.62,7.62,0,0,0,3.17-.4,5.55,5.55,0,0,1,2.57-.32,5.54,5.54,0,0,1,2.13,1.52A7.54,7.54,0,0,0,90.09,6.9,7.45,7.45,0,0,0,93.28,7a5.59,5.59,0,0,1,2.59.11A5.6,5.6,0,0,1,97.72,9,7.51,7.51,0,0,0,100,11.23a7.34,7.34,0,0,0,3.12.66,5.53,5.53,0,0,1,2.54.54,5.56,5.56,0,0,1,1.51,2.12A7.4,7.4,0,0,0,109,17.14a7.39,7.39,0,0,0,3,1.16,5.6,5.6,0,0,1,2.42.95,5.63,5.63,0,0,1,1.14,2.34,7.64,7.64,0,0,0,1.4,2.86,7.6,7.6,0,0,0,2.74,1.63,5.6,5.6,0,0,1,2.24,1.33,5.64,5.64,0,0,1,.74,2.49,7.46,7.46,0,0,0,.91,3.05A7.57,7.57,0,0,0,126,35a5.58,5.58,0,0,1,2,1.68,5.53,5.53,0,0,1,.32,2.58,7.64,7.64,0,0,0,.4,3.16,7.58,7.58,0,0,0,2.05,2.43,5.52,5.52,0,0,1,1.69,2,5.53,5.53,0,0,1-.11,2.59,7.65,7.65,0,0,0-.13,3.19,7.61,7.61,0,0,0,1.62,2.73,5.45,5.45,0,0,1,1.34,2.25,5.49,5.49,0,0,1-.54,2.52,7.65,7.65,0,0,0-.65,3.14,7.38,7.38,0,0,0,1.14,2.95,5.64,5.64,0,0,1,1,2.45,5.6,5.6,0,0,1-1,2.44,7.38,7.38,0,0,0-1.14,3,7.62,7.62,0,0,0,.65,3.14,5.53,5.53,0,0,1,.54,2.53,3,3,0,0,1-.14.46A7.67,7.67,0,0,1,133.81,82Z"/><path class="cls-2" d="M134,74.06a7.38,7.38,0,0,1,1.14-3,9.09,9.09,0,0,0,.79-1.6L100.32,50.09l31.83.42c0-.36.11-.72.17-1.07a5.53,5.53,0,0,0,.11-2.59,5.52,5.52,0,0,0-1.69-2,7.58,7.58,0,0,1-2.05-2.43,7.64,7.64,0,0,1-.4-3.16,5.53,5.53,0,0,0-.32-2.58A5.58,5.58,0,0,0,126,35,7.57,7.57,0,0,1,123.55,33a7.46,7.46,0,0,1-.91-3.05,5.64,5.64,0,0,0-.74-2.49,5.6,5.6,0,0,0-2.24-1.33,7.6,7.6,0,0,1-2.74-1.63,7.64,7.64,0,0,1-1.4-2.86,5.63,5.63,0,0,0-1.14-2.34A5.6,5.6,0,0,0,112,18.3a7.39,7.39,0,0,1-3-1.16,7.4,7.4,0,0,1-1.85-2.59,5.56,5.56,0,0,0-1.51-2.12,5.53,5.53,0,0,0-2.54-.54,7.34,7.34,0,0,1-3.12-.66A7.51,7.51,0,0,1,97.72,9a5.6,5.6,0,0,0-1.85-1.85A5.59,5.59,0,0,0,93.28,7a7.45,7.45,0,0,1-3.19-.13,7.54,7.54,0,0,1-2.58-1.84,5.54,5.54,0,0,0-2.13-1.52,5.55,5.55,0,0,0-2.57.32,7.62,7.62,0,0,1-3.17.4,7.57,7.57,0,0,1-2.85-1.39,5.58,5.58,0,0,0-2.36-1.15A5.52,5.52,0,0,0,72,2.46a7.58,7.58,0,0,1-3.08.92,7.53,7.53,0,0,1-3.08-.92,5.59,5.59,0,0,0-2.47-.74A5.58,5.58,0,0,0,61,2.87a12.75,12.75,0,0,1-1.7,1,4.55,4.55,0,0,1-1.15.37A7.64,7.64,0,0,1,55,3.86a5.55,5.55,0,0,0-2.57-.32,5.61,5.61,0,0,0-2.13,1.52A7.54,7.54,0,0,1,47.68,6.9,7.45,7.45,0,0,1,44.49,7a5.59,5.59,0,0,0-2.59.11A5.6,5.6,0,0,0,40.05,9a7.48,7.48,0,0,1-2.24,2.24,7.38,7.38,0,0,1-3.12.66,5.57,5.57,0,0,0-2.55.54,3.37,3.37,0,0,0-1,1.12l69.2,36.54L34.7,47.91h0c-.24-1.2-.49-2.73-.61-3.62H34c-.12.88-.34,2.38-.6,3.58h0L5.32,46.93a5.94,5.94,0,0,0,.13,2.51,7.65,7.65,0,0,1,.13,3.19A7.47,7.47,0,0,1,4,55.36a5.45,5.45,0,0,0-1.34,2.25,5.49,5.49,0,0,0,.54,2.52,7.65,7.65,0,0,1,.65,3.14,7.38,7.38,0,0,1-1.14,2.95,5.61,5.61,0,0,0-.95,2.45,5.57,5.57,0,0,0,1,2.44,7.38,7.38,0,0,1,1.14,3,7.62,7.62,0,0,1-.65,3.14,5.53,5.53,0,0,0-.54,2.53A5.58,5.58,0,0,0,4,82,7.43,7.43,0,0,1,5.58,84.7a7.69,7.69,0,0,1-.13,3.2,5.49,5.49,0,0,0-.11,2.58,5.54,5.54,0,0,0,1.69,2A7.55,7.55,0,0,1,9.08,94.9a7.68,7.68,0,0,1,.4,3.17,5.48,5.48,0,0,0,.32,2.57,5.58,5.58,0,0,0,2,1.68,7.46,7.46,0,0,1,2.43,2.06,7.46,7.46,0,0,1,.91,3.05,5.47,5.47,0,0,0,.75,2.49,5.56,5.56,0,0,0,2.23,1.34,7.46,7.46,0,0,1,2.74,1.63,7.43,7.43,0,0,1,1.4,2.86,5.69,5.69,0,0,0,1.14,2.34,5.72,5.72,0,0,0,2.43.94,7.55,7.55,0,0,1,3,1.16,7.4,7.4,0,0,1,1.85,2.59,5.71,5.71,0,0,0,1.51,2.13,5.68,5.68,0,0,0,2.55.53,7.56,7.56,0,0,1,3.12.66,7.4,7.4,0,0,1,2.24,2.25,5.56,5.56,0,0,0,1.85,1.84,5.46,5.46,0,0,0,2.59.11,7.61,7.61,0,0,1,3.19.14,7.28,7.28,0,0,1,2.58,1.84,5.84,5.84,0,0,0,2.13,1.52,5.7,5.7,0,0,0,2.57-.33,9.66,9.66,0,0,1,2.49-.45,3.82,3.82,0,0,1,.68.06A7.48,7.48,0,0,1,61,134.46a5.58,5.58,0,0,0,2.36,1.15,5.59,5.59,0,0,0,2.47-.74,7.52,7.52,0,0,1,3.08-.91,7.56,7.56,0,0,1,3.08.91,5.52,5.52,0,0,0,2.46.74,5.58,5.58,0,0,0,2.36-1.15,7.55,7.55,0,0,1,2.85-1.38,7.47,7.47,0,0,1,3.17.39,5.7,5.7,0,0,0,2.57.33,5.76,5.76,0,0,0,2.13-1.52,7.28,7.28,0,0,1,2.58-1.84,7.61,7.61,0,0,1,3.19-.14,5.6,5.6,0,0,0,2.59-.1,5.7,5.7,0,0,0,1.85-1.85A7.4,7.4,0,0,1,100,126.1a7.58,7.58,0,0,1,3.13-.66,5.66,5.66,0,0,0,2.54-.53,5.6,5.6,0,0,0,1.51-2.13,7.4,7.4,0,0,1,1.85-2.59,7.54,7.54,0,0,1,3-1.16,5.6,5.6,0,0,0,2.42-.94,5.69,5.69,0,0,0,1.14-2.34,7.57,7.57,0,0,1,1.4-2.86,7.46,7.46,0,0,1,2.74-1.63,5.79,5.79,0,0,0,2.24-1.33,5.68,5.68,0,0,0,.74-2.5,7.51,7.51,0,0,1,.91-3.05,7.41,7.41,0,0,1,2.43-2,5.7,5.7,0,0,0,2-1.69,5.48,5.48,0,0,0,.32-2.57,7.68,7.68,0,0,1,.4-3.17,7.55,7.55,0,0,1,2.05-2.42,5.54,5.54,0,0,0,1.69-2,5.49,5.49,0,0,0-.11-2.58,7.69,7.69,0,0,1-.13-3.2A7.57,7.57,0,0,1,133.81,82a7.67,7.67,0,0,0,1.2-1.79,3,3,0,0,0,.14-.46,5.53,5.53,0,0,0-.54-2.53A7.62,7.62,0,0,1,134,74.06Z"/><path class="cls-3" d="M35.52,40.86,37.31,48l63.07,2.09L31.18,13.55c-.19.31-.37.65-.55,1a7.4,7.4,0,0,1-1.85,2.59,7.49,7.49,0,0,1-3,1.16,5.65,5.65,0,0,0-2.43.95,5.63,5.63,0,0,0-1.14,2.34,7.5,7.5,0,0,1-1.4,2.86,7.64,7.64,0,0,1-2.73,1.63,5.53,5.53,0,0,0-2.24,1.33,5.51,5.51,0,0,0-.75,2.49A7.46,7.46,0,0,1,14.22,33,7.46,7.46,0,0,1,11.79,35a5.58,5.58,0,0,0-2,1.68,5.53,5.53,0,0,0-.32,2.58,7.64,7.64,0,0,1-.4,3.16,7.58,7.58,0,0,1-2,2.43,5.52,5.52,0,0,0-1.69,2,.24.24,0,0,0,0,.08l25.52.85,1.74-6.92Z"/><path class="cls-3" d="M135.89,69.51a2.62,2.62,0,0,0,.17-.84,5.64,5.64,0,0,0-1-2.45A7.38,7.38,0,0,1,134,63.27a7.65,7.65,0,0,1,.65-3.14,5.49,5.49,0,0,0,.54-2.52,5.45,5.45,0,0,0-1.34-2.25,7.61,7.61,0,0,1-1.62-2.73,5.59,5.59,0,0,1,0-2.12l-31.83-.42Z"/><path class="cls-4" d="M135.87,75.56a3.74,3.74,0,0,1-.2-1.36,3.65,3.65,0,0,1,.41-1.28c.15-.31.33-.63.52-1a6.78,6.78,0,0,0,1.17-3.28,6.85,6.85,0,0,0-1.17-3.29c-.19-.33-.37-.66-.52-1a3.65,3.65,0,0,1-.41-1.28,3.8,3.8,0,0,1,.2-1.36c.1-.34.23-.69.36-1.05a6.91,6.91,0,0,0,.61-3.39,6.79,6.79,0,0,0-1.69-3c-.24-.29-.46-.58-.67-.86a3.77,3.77,0,0,1-.62-1.21,3.82,3.82,0,0,1,0-1.36c0-.35.11-.72.18-1.1a6.88,6.88,0,0,0,.05-3.46,7,7,0,0,0-2.17-2.71c-.29-.26-.57-.51-.81-.75a3.59,3.59,0,0,1-.81-1.09,3.79,3.79,0,0,1-.26-1.33c0-.35,0-.73,0-1.12a6.84,6.84,0,0,0-.53-3.42,6.81,6.81,0,0,0-2.59-2.31c-.32-.21-.64-.41-.92-.61a3.54,3.54,0,0,1-1-.94,3.73,3.73,0,0,1-.47-1.27c-.07-.35-.13-.72-.19-1.1a6.8,6.8,0,0,0-1.08-3.29,6.86,6.86,0,0,0-2.93-1.85c-.35-.15-.7-.3-1-.46a3.4,3.4,0,0,1-1.11-.76,3.61,3.61,0,0,1-.67-1.18c-.13-.33-.25-.68-.37-1.05A6.8,6.8,0,0,0,115.54,18a6.76,6.76,0,0,0-3.19-1.36c-.37-.09-.74-.17-1.08-.28a3.87,3.87,0,0,1-1.23-.56,3.93,3.93,0,0,1-.85-1.07c-.18-.3-.35-.62-.53-1A6.87,6.87,0,0,0,106.57,11a6.83,6.83,0,0,0-3.37-.81c-.38,0-.75,0-1.11-.1a3.71,3.71,0,0,1-1.31-.36,3.49,3.49,0,0,1-1-.9c-.23-.26-.45-.56-.68-.86a6.74,6.74,0,0,0-2.53-2.39,6.78,6.78,0,0,0-3.44-.25c-.38,0-.76.08-1.11.09a3.68,3.68,0,0,1-1.36-.14,3.75,3.75,0,0,1-1.14-.71c-.27-.23-.54-.49-.82-.75A6.89,6.89,0,0,0,85.8,1.87a6.72,6.72,0,0,0-3.43.34l-1.09.27a3.77,3.77,0,0,1-1.36.08,3.59,3.59,0,0,1-1.24-.51c-.31-.18-.61-.39-.93-.6A6.83,6.83,0,0,0,74.57,0,6.83,6.83,0,0,0,71.25.9c-.35.16-.7.32-1,.45a3.86,3.86,0,0,1-1.33.31,3.76,3.76,0,0,1-1.33-.31c-.34-.13-.68-.29-1-.45A6.91,6.91,0,0,0,63.2,0,6.87,6.87,0,0,0,60,1.45c-.32.21-.62.42-.92.6s-.41.22-.61.31a2.25,2.25,0,0,1-.64.2,3.79,3.79,0,0,1-1.36-.08l-1.08-.27A6.77,6.77,0,0,0,52,1.87a6.89,6.89,0,0,0-2.89,1.94c-.28.26-.55.52-.82.75a3.63,3.63,0,0,1-1.14.71,3.68,3.68,0,0,1-1.36.14c-.35,0-.72,0-1.1-.09a6.81,6.81,0,0,0-3.45.25A7,7,0,0,0,38.68,8c-.23.31-.45.6-.68.87a3.64,3.64,0,0,1-1,.9,3.6,3.6,0,0,1-1.31.36c-.35.05-.73.08-1.11.1A6.85,6.85,0,0,0,31.2,11a6.87,6.87,0,0,0-2.09,2.77c-.18.33-.35.66-.53,1a3.57,3.57,0,0,1-.85,1.06,3.5,3.5,0,0,1-1.23.57c-.34.11-.71.19-1.08.28A6.76,6.76,0,0,0,22.23,18a6.8,6.8,0,0,0-1.61,3.06c-.12.37-.23.72-.36,1.05a3.8,3.8,0,0,1-.67,1.18,3.8,3.8,0,0,1-1.12.76q-.48.24-1,.45a7,7,0,0,0-2.93,1.86,6.87,6.87,0,0,0-1.08,3.29c-.06.38-.12.75-.19,1.1A3.54,3.54,0,0,1,12.78,32a3.64,3.64,0,0,1-1,.94l-.93.61a6.88,6.88,0,0,0-2.59,2.31,7,7,0,0,0-.53,3.42c0,.39,0,.76,0,1.12a3.8,3.8,0,0,1-.25,1.33,3.77,3.77,0,0,1-.81,1.08c-.25.25-.53.5-.81.75a6.87,6.87,0,0,0-2.17,2.72,6.77,6.77,0,0,0,0,3.46c.07.38.14.75.18,1.1a3.82,3.82,0,0,1,0,1.36,3.77,3.77,0,0,1-.62,1.21c-.2.28-.43.57-.67.86a6.89,6.89,0,0,0-1.69,3,6.91,6.91,0,0,0,.61,3.39q.21.54.36,1.05a3.59,3.59,0,0,1,.2,1.36,3.65,3.65,0,0,1-.41,1.28c-.15.31-.33.64-.52,1A7,7,0,0,0,0,68.67,6.88,6.88,0,0,0,1.17,72c.19.34.37.66.52,1A3.65,3.65,0,0,1,2.1,74.2a3.54,3.54,0,0,1-.2,1.36c-.1.34-.22.69-.36,1.06A6.89,6.89,0,0,0,.93,80a6.85,6.85,0,0,0,1.69,3c.24.3.47.58.67.87a3.63,3.63,0,0,1,.62,1.2,3.82,3.82,0,0,1,0,1.36c0,.35-.11.72-.18,1.11a6.73,6.73,0,0,0,0,3.45,6.74,6.74,0,0,0,2.17,2.72c.28.25.56.5.81.75a3.91,3.91,0,0,1,.81,1.08,4.09,4.09,0,0,1,.25,1.33c0,.36,0,.73,0,1.12a7,7,0,0,0,.53,3.42,6.91,6.91,0,0,0,2.59,2.32c.32.2.64.4.92.61a3.66,3.66,0,0,1,1,.93,3.73,3.73,0,0,1,.47,1.27c.07.35.13.72.19,1.1A6.77,6.77,0,0,0,14.52,111a6.88,6.88,0,0,0,2.93,1.86c.36.15.7.29,1,.45a3.8,3.8,0,0,1,1.12.76,4.15,4.15,0,0,1,.67,1.18c.12.33.24.69.36,1a6.89,6.89,0,0,0,1.61,3.07,6.85,6.85,0,0,0,3.19,1.35c.37.09.74.18,1.08.28a3.78,3.78,0,0,1,1.23.57,3.7,3.7,0,0,1,.85,1.06c.18.3.35.63.53,1a6.87,6.87,0,0,0,2.09,2.77,6.83,6.83,0,0,0,3.37.81c.38,0,.76,0,1.11.1A3,3,0,0,1,38,128.51c.23.27.45.56.68.87a6.89,6.89,0,0,0,2.53,2.39,6.93,6.93,0,0,0,3.45.24l1.1-.09a3.9,3.9,0,0,1,1.36.14,3.67,3.67,0,0,1,1.14.72c.27.22.54.48.82.74A6.79,6.79,0,0,0,52,135.46a6.87,6.87,0,0,0,3.44-.33c.37-.1.74-.2,1.09-.27a3.54,3.54,0,0,1,1.35-.09,3.75,3.75,0,0,1,1.25.52c.3.18.6.38.92.59a6.87,6.87,0,0,0,3.18,1.44h.29a7.53,7.53,0,0,0,3-.9c.36-.16.7-.32,1-.45a3.76,3.76,0,0,1,1.33-.31,3.86,3.86,0,0,1,1.33.31c.33.13.68.29,1,.45a6.69,6.69,0,0,0,3.32.89,6.83,6.83,0,0,0,3.18-1.44c.32-.21.62-.41.93-.59a3.62,3.62,0,0,1,1.24-.52,3.58,3.58,0,0,1,1.36.09c.35.07.71.17,1.09.27a6.83,6.83,0,0,0,3.43.33,6.79,6.79,0,0,0,2.89-1.94c.28-.26.55-.52.82-.74a3.67,3.67,0,0,1,1.14-.72,3.9,3.9,0,0,1,1.36-.14l1.11.09a6.89,6.89,0,0,0,3.44-.24,6.89,6.89,0,0,0,2.53-2.39c.23-.31.45-.6.68-.87a3.81,3.81,0,0,1,1-.9,3.65,3.65,0,0,1,1.31-.36l1.11-.1a5.14,5.14,0,0,0,5.46-3.57c.18-.34.35-.67.53-1a3.88,3.88,0,0,1,.85-1.06,3.78,3.78,0,0,1,1.23-.57c.34-.1.71-.19,1.08-.28a5.14,5.14,0,0,0,4.8-4.42c.12-.36.24-.72.37-1a2.94,2.94,0,0,1,1.78-1.94c.32-.16.67-.3,1-.45a5.14,5.14,0,0,0,4-5.15c.06-.38.12-.75.19-1.09a3.79,3.79,0,0,1,.47-1.28,3.66,3.66,0,0,1,1-.93c.28-.21.6-.41.92-.61a6.83,6.83,0,0,0,2.59-2.32A6.84,6.84,0,0,0,130,98c0-.39,0-.76,0-1.12a3.84,3.84,0,0,1,.26-1.33,3.55,3.55,0,0,1,.81-1.08c.24-.25.52-.5.81-.75A6.91,6.91,0,0,0,134.06,91a6.84,6.84,0,0,0-.05-3.45c-.07-.38-.14-.76-.18-1.11a3.82,3.82,0,0,1,0-1.36,3.63,3.63,0,0,1,.62-1.2c.21-.29.43-.57.67-.87A10.14,10.14,0,0,0,136.54,81a3.64,3.64,0,0,0,.3-1,6.89,6.89,0,0,0-.61-3.39C136.1,76.25,136,75.9,135.87,75.56ZM133.81,82a7.57,7.57,0,0,0-1.62,2.72,7.69,7.69,0,0,0,.13,3.2,5.49,5.49,0,0,1,.11,2.58,5.54,5.54,0,0,1-1.69,2,7.55,7.55,0,0,0-2.05,2.42,7.68,7.68,0,0,0-.4,3.17,5.48,5.48,0,0,1-.32,2.57,5.7,5.7,0,0,1-2,1.69,7.41,7.41,0,0,0-2.43,2,7.51,7.51,0,0,0-.91,3.05,5.68,5.68,0,0,1-.74,2.5,5.79,5.79,0,0,1-2.24,1.33,7.46,7.46,0,0,0-2.74,1.63,7.57,7.57,0,0,0-1.4,2.86,5.69,5.69,0,0,1-1.14,2.34A5.6,5.6,0,0,1,112,119a7.54,7.54,0,0,0-3,1.16,7.4,7.4,0,0,0-1.85,2.59,5.6,5.6,0,0,1-1.51,2.13,5.66,5.66,0,0,1-2.54.53,7.58,7.58,0,0,0-3.13.66,7.4,7.4,0,0,0-2.24,2.25,5.7,5.7,0,0,1-1.85,1.85,5.6,5.6,0,0,1-2.59.1,7.61,7.61,0,0,0-3.19.14,7.28,7.28,0,0,0-2.58,1.84,5.76,5.76,0,0,1-2.13,1.52,5.7,5.7,0,0,1-2.57-.33,7.47,7.47,0,0,0-3.17-.39,7.55,7.55,0,0,0-2.85,1.38,5.58,5.58,0,0,1-2.36,1.15,5.52,5.52,0,0,1-2.46-.74,7.56,7.56,0,0,0-3.08-.91,7.52,7.52,0,0,0-3.08.91,5.59,5.59,0,0,1-2.47.74A5.58,5.58,0,0,1,61,134.46a7.48,7.48,0,0,0-2.85-1.38,3.82,3.82,0,0,0-.68-.06,9.66,9.66,0,0,0-2.49.45,5.7,5.7,0,0,1-2.57.33,5.84,5.84,0,0,1-2.13-1.52,7.28,7.28,0,0,0-2.58-1.84,7.61,7.61,0,0,0-3.19-.14,5.46,5.46,0,0,1-2.59-.11,5.56,5.56,0,0,1-1.85-1.84,7.4,7.4,0,0,0-2.24-2.25,7.56,7.56,0,0,0-3.12-.66,5.68,5.68,0,0,1-2.55-.53,5.71,5.71,0,0,1-1.51-2.13,7.4,7.4,0,0,0-1.85-2.59,7.55,7.55,0,0,0-3-1.16,5.72,5.72,0,0,1-2.43-.94,5.69,5.69,0,0,1-1.14-2.34,7.43,7.43,0,0,0-1.4-2.86,7.46,7.46,0,0,0-2.74-1.63,5.56,5.56,0,0,1-2.23-1.34,5.47,5.47,0,0,1-.75-2.49,7.46,7.46,0,0,0-.91-3.05,7.46,7.46,0,0,0-2.43-2.06,5.58,5.58,0,0,1-2-1.68,5.48,5.48,0,0,1-.32-2.57,7.68,7.68,0,0,0-.4-3.17,7.55,7.55,0,0,0-2-2.42,5.54,5.54,0,0,1-1.69-2,5.49,5.49,0,0,1,.11-2.58,7.69,7.69,0,0,0,.13-3.2A7.43,7.43,0,0,0,4,82a5.58,5.58,0,0,1-1.34-2.25,5.53,5.53,0,0,1,.54-2.53,7.62,7.62,0,0,0,.65-3.14,7.38,7.38,0,0,0-1.14-3,5.57,5.57,0,0,1-.95-2.44,5.61,5.61,0,0,1,1-2.45,7.38,7.38,0,0,0,1.14-2.95,7.65,7.65,0,0,0-.65-3.14,5.49,5.49,0,0,1-.54-2.52A5.45,5.45,0,0,1,4,55.36a7.47,7.47,0,0,0,1.62-2.73,7.65,7.65,0,0,0-.13-3.19,5.53,5.53,0,0,1-.11-2.59,5.52,5.52,0,0,1,1.69-2,7.58,7.58,0,0,0,2.05-2.43,7.64,7.64,0,0,0,.4-3.16,5.53,5.53,0,0,1,.32-2.58,5.58,5.58,0,0,1,2-1.68A7.46,7.46,0,0,0,14.22,33a7.46,7.46,0,0,0,.91-3.05,5.51,5.51,0,0,1,.75-2.49,5.53,5.53,0,0,1,2.24-1.33,7.64,7.64,0,0,0,2.73-1.63,7.5,7.5,0,0,0,1.4-2.86,5.63,5.63,0,0,1,1.14-2.34,5.65,5.65,0,0,1,2.43-.95,7.49,7.49,0,0,0,3-1.16,7.4,7.4,0,0,0,1.85-2.59,5.67,5.67,0,0,1,1.51-2.12,5.57,5.57,0,0,1,2.55-.54,7.38,7.38,0,0,0,3.12-.66A7.48,7.48,0,0,0,40.05,9,5.6,5.6,0,0,1,41.9,7.14,5.59,5.59,0,0,1,44.49,7a7.45,7.45,0,0,0,3.19-.13,7.54,7.54,0,0,0,2.58-1.84,5.61,5.61,0,0,1,2.13-1.52A5.55,5.55,0,0,1,55,3.86a7.64,7.64,0,0,0,3.17.4,4.55,4.55,0,0,0,1.15-.37,12.75,12.75,0,0,0,1.7-1,5.58,5.58,0,0,1,2.36-1.15,5.59,5.59,0,0,1,2.47.74,7.53,7.53,0,0,0,3.08.92A7.58,7.58,0,0,0,72,2.46a5.52,5.52,0,0,1,2.46-.74,5.58,5.58,0,0,1,2.36,1.15,7.57,7.57,0,0,0,2.85,1.39,7.62,7.62,0,0,0,3.17-.4,5.55,5.55,0,0,1,2.57-.32,5.54,5.54,0,0,1,2.13,1.52A7.54,7.54,0,0,0,90.09,6.9,7.45,7.45,0,0,0,93.28,7a5.59,5.59,0,0,1,2.59.11A5.6,5.6,0,0,1,97.72,9,7.51,7.51,0,0,0,100,11.23a7.34,7.34,0,0,0,3.12.66,5.53,5.53,0,0,1,2.54.54,5.56,5.56,0,0,1,1.51,2.12A7.4,7.4,0,0,0,109,17.14a7.39,7.39,0,0,0,3,1.16,5.6,5.6,0,0,1,2.42.95,5.63,5.63,0,0,1,1.14,2.34,7.64,7.64,0,0,0,1.4,2.86,7.6,7.6,0,0,0,2.74,1.63,5.6,5.6,0,0,1,2.24,1.33,5.64,5.64,0,0,1,.74,2.49,7.46,7.46,0,0,0,.91,3.05A7.57,7.57,0,0,0,126,35a5.58,5.58,0,0,1,2,1.68,5.53,5.53,0,0,1,.32,2.58,7.64,7.64,0,0,0,.4,3.16,7.58,7.58,0,0,0,2.05,2.43,5.52,5.52,0,0,1,1.69,2,5.53,5.53,0,0,1-.11,2.59,7.65,7.65,0,0,0-.13,3.19,7.61,7.61,0,0,0,1.62,2.73,5.45,5.45,0,0,1,1.34,2.25,5.49,5.49,0,0,1-.54,2.52,7.65,7.65,0,0,0-.65,3.14,7.38,7.38,0,0,0,1.14,2.95,5.64,5.64,0,0,1,1,2.45,5.6,5.6,0,0,1-1,2.44,7.38,7.38,0,0,0-1.14,3,7.62,7.62,0,0,0,.65,3.14,5.53,5.53,0,0,1,.54,2.53,3,3,0,0,1-.14.46A7.67,7.67,0,0,1,133.81,82Z"/><path class="cls-4" d="M100.06,39.39A10.59,10.59,0,1,0,110.66,50,10.58,10.58,0,0,0,100.06,39.39Zm.29,2.52a8.1,8.1,0,0,1,3.5.94l-3.5,6Zm-.58,7-3.49-6a8.1,8.1,0,0,1,3.49-.94ZM99,50.27l-6,3.49A7.92,7.92,0,0,1,92,50.27Zm-7-.58a7.89,7.89,0,0,1,.94-3.49l6,3.49ZM99.77,58a8,8,0,0,1-3.49-.93l3.49-6Zm.58-7,3.5,6a8,8,0,0,1-3.5.93Zm.8-1.37,6-3.49a7.89,7.89,0,0,1,.94,3.49Zm7,.58a7.92,7.92,0,0,1-.94,3.49l-6-3.49ZM106.9,45.7l-6,3.49,3.49-6A8.1,8.1,0,0,1,106.9,45.7ZM95.78,43.14l3.49,6-6-3.49A8.1,8.1,0,0,1,95.78,43.14ZM93.23,54.26l6-3.49-3.49,6A8.2,8.2,0,0,1,93.23,54.26Zm11.12,2.56-3.49-6,6,3.49A8.2,8.2,0,0,1,104.35,56.82Z"/><polygon class="cls-3" points="97.92 85 108.79 85 108.15 75.78 105.39 75.78 105.11 71.69 103.42 75.78 98.55 75.78 97.92 85"/><polygon class="cls-3" points="96.79 101.25 109.91 101.25 109.46 94.69 97.25 94.69 96.79 101.25"/><path class="cls-3" d="M107.48,66.1l-.56-8a10.54,10.54,0,0,1-6.86,2.52H99.6l-.38,5.54Z"/><polygon class="cls-5" points="98.55 75.78 99.39 75.78 100.09 77.52 100.78 75.78 103.42 75.78 105.11 71.69 105.39 75.78 108.15 75.78 107.48 66.1 99.22 66.1 98.55 75.78"/><polygon class="cls-5" points="97.25 94.69 109.46 94.69 108.79 85 97.92 85 97.25 94.69"/><path class="cls-5" d="M96.43,106.41h17.12a2.8,2.8,0,0,0,.07-.59v-2.37a2,2,0,0,0-1.77-2.2H96.79Z"/><polygon class="cls-6" points="98.55 75.78 96.75 75.78 95.07 71.69 94.79 75.78 92.03 75.78 91.39 85 97.92 85 98.55 75.78"/><path class="cls-6" d="M99.22,66.1l.38-5.54a10.56,10.56,0,0,1-6.35-2.47l-.55,8Z"/><polygon class="cls-6" points="97.25 94.69 90.72 94.69 90.27 101.25 96.79 101.25 97.25 94.69"/><polygon class="cls-7" points="99.22 66.1 92.7 66.1 92.03 75.78 94.79 75.78 95.07 71.69 96.75 75.78 98.55 75.78 99.22 66.1"/><polygon class="cls-7" points="97.92 85 91.39 85 90.72 94.69 97.25 94.69 97.92 85"/><path class="cls-7" d="M90.27,101.25h-2a2,2,0,0,0-1.77,2.2v2.37a2.8,2.8,0,0,0,.07.59h9.85l.36-5.16Z"/><path class="cls-8" d="M88.66,122.42a3.45,3.45,0,0,1-3-1.79.7.7,0,0,0-.63-.37.72.72,0,0,0-.63.37,3.45,3.45,0,0,1-6.05,0,.72.72,0,0,0-.63-.37.71.71,0,0,0-.63.37,3.46,3.46,0,0,1-6.06,0,.72.72,0,0,0-1.26,0,3.46,3.46,0,0,1-6.06,0,.71.71,0,0,0-.63-.37.72.72,0,0,0-.63.37,3.45,3.45,0,0,1-3,1.79.72.72,0,0,0,0,1.44,4.93,4.93,0,0,0,3.54-1.51l.12-.13.13.13a4.89,4.89,0,0,0,7.07,0l.12-.13.12.13a4.89,4.89,0,0,0,7.07,0l.13-.13.12.13a4.89,4.89,0,0,0,7.07,0l.12-.13.13.13a4.92,4.92,0,0,0,3.53,1.51.72.72,0,0,0,0-1.44Z"/><path class="cls-8" d="M56.84,115.25a3.45,3.45,0,0,1-3-1.79.72.72,0,0,0-1.26,0,3.46,3.46,0,0,1-6.06,0,.71.71,0,0,0-1.25,0,3.47,3.47,0,0,1-3,1.79.72.72,0,0,0,0,1.44h0a4.91,4.91,0,0,0,3.49-1.51l.13-.13.12.13a4.89,4.89,0,0,0,7.07,0l.12-.13.13.13a4.9,4.9,0,0,0,3.53,1.51.72.72,0,0,0,0-1.44Z"/><path class="cls-4" d="M55,51.29c-.35,1.67-.68,3.51-1,5H54c-.27-1.51-.56-3.35-.94-5L50.76,40.86H47.9l4.64,18.91h3l4.65-18.91H57.32Z"/><polygon class="cls-4" points="66.61 51.42 72.64 51.42 72.64 48.91 66.61 48.91 66.61 43.43 73.15 43.43 73.15 40.86 63.88 40.86 63.88 59.77 73.42 59.77 73.42 57.2 66.61 57.2 66.61 51.42"/><polygon class="cls-4" points="71.88 35.65 69.39 35.65 66.88 39.03 68.94 39.03 71.88 35.65"/><polygon class="cls-4" points="80.68 57.18 80.68 40.86 77.95 40.86 77.95 59.77 86.95 59.77 86.95 57.18 80.68 57.18"/><polygon class="cls-4" points="19.56 40.86 16.83 40.86 16.83 59.77 25.83 59.77 25.83 57.18 19.56 57.18 19.56 40.86"/><path class="cls-4" d="M32.58,40.86,27.82,59.77h2.87L31.55,56h5l.89,3.81h2.83L35.52,40.86Zm-.44,12.56,1.17-5.07c.29-1.25.56-3.06.7-4.06h.08c.13,1,.43,2.81.7,4.06L36,53.42Z"/><path class="cls-4" d="M25.66,73.77c-.43,1.08-1.08,2.89-1.37,3.75h-.11c-.3-.86-.95-2.67-1.38-3.75L19.61,66.1H16.83V85h2.68V77.63c-.06-2.16-.14-4.13-.22-6.1l.11-.06c.54,1.51,1.19,3.24,1.83,5l1.65,4.29h2.7l1.65-4.29c.65-1.73,1.3-3.46,1.84-5l.1.06c-.1,2-.16,3.94-.21,6.1V85h2.67V66.1H28.85Z"/><path class="cls-4" d="M39.54,66.1,34.79,85h2.86l.87-3.81h5l.9,3.81h2.83L42.49,66.1Zm-.43,12.55,1.16-5.07c.3-1.24.57-3,.71-4h.08c.13,1,.43,2.81.7,4L43,78.65Z"/><path class="cls-4" d="M61,72c0-3.75-2.06-5.91-5.67-5.91H50.43V85h2.72V78.14h1.71L58.66,85h3l-4.11-7.24C59.74,77,61,75,61,72Zm-5.73,3.54H53.15V68.69h2.14c1.89,0,2.89,1.13,2.89,3.38S57.18,75.55,55.26,75.55Z"/><rect class="cls-4" x="65.12" y="66.1" width="2.73" height="18.91"/><polygon class="cls-4" points="71.25 68.69 75.16 68.69 75.16 85 77.95 85 77.95 68.69 81.89 68.69 81.89 66.1 71.25 66.1 71.25 68.69"/><rect class="cls-4" x="85.16" y="66.1" width="2.73" height="18.91"/><polygon class="cls-4" points="115.11 82.44 115.11 76.66 121.13 76.66 121.13 74.14 115.11 74.14 115.11 68.66 121.64 68.66 121.64 66.1 112.38 66.1 112.38 85 121.91 85 121.91 82.44 115.11 82.44"/><path class="cls-4" d="M39,96.6V94.75a1.54,1.54,0,0,0-1.66-1.7H36v5.27h1.39A1.55,1.55,0,0,0,39,96.6Zm-.94,0c0,.56-.25.85-.71.85h-.47V93.93h.47c.46,0,.71.28.71.82Z"/><polygon class="cls-4" points="41.22 96.07 42.8 96.07 42.8 95.22 41.22 95.22 41.22 93.92 42.94 93.92 42.94 93.05 40.29 93.05 40.29 98.32 43.02 98.32 43.02 97.45 41.22 97.45 41.22 96.07"/><polygon class="cls-4" points="48.84 97.44 47.19 97.44 47.19 93.05 46.26 93.05 46.26 98.32 48.84 98.32 48.84 97.44"/><path class="cls-4" d="M50.67,93.05l-1.3,5.27h1l.21-.95h1.23l.22.95h1l-1.3-5.27Zm.07,3.43.21-1c.07-.36.16-.94.2-1.29h0c.06.35.14.93.21,1.29l.22,1Z"/><path class="cls-4" d="M59.43,94.84l0,0c0,.59-.05,1.19-.07,1.81v1.65h.91V93.05h-.94l-.85,2.06a10.44,10.44,0,0,0-.37,1h0c-.07-.22-.25-.7-.37-1l-.85-2.06H56v5.27h.91V96.67c0-.62,0-1.22-.08-1.81l0,0c.16.44.32.91.49,1.39l.35.93h.92l.36-.93C59.1,95.75,59.28,95.28,59.43,94.84Z"/><path class="cls-4" d="M62.58,93.05l-1.3,5.27h1l.21-.95h1.24l.21.95h1l-1.3-5.27Zm.06,3.43.21-1c.08-.36.16-.94.21-1.29h0c.05.35.14.93.21,1.29l.21,1Z"/><path class="cls-4" d="M68.18,94.65c0,.48.06,1.34.13,1.93l0,0c-.13-.32-.29-.73-.42-1.07l-1.1-2.48h-.92v5.27h.91V96.81c0-.55-.05-1.45-.12-2l0,0c.14.39.33.88.49,1.29l1,2.29h.92V93.05h-.92Z"/><path class="cls-4" d="M72,97.52c-.39,0-.62-.25-.62-.78V94.63c0-.54.23-.79.62-.79s.67.23.7.77h.93A1.53,1.53,0,0,0,72,92.94a1.49,1.49,0,0,0-1.58,1.69v2.11A1.48,1.48,0,0,0,72,98.41a1.52,1.52,0,0,0,1.65-1.65H72.7C72.66,97.28,72.43,97.52,72,97.52Z"/><polygon class="cls-4" points="75.67 96.1 76.95 96.1 76.95 98.32 77.88 98.32 77.88 93.05 76.95 93.05 76.95 95.22 75.67 95.22 75.67 93.05 74.75 93.05 74.75 98.32 75.67 98.32 75.67 96.1"/><polygon class="cls-4" points="80.25 97.45 80.25 96.07 81.84 96.07 81.84 95.22 80.25 95.22 80.25 93.92 81.98 93.92 81.98 93.05 79.33 93.05 79.33 98.32 82.06 98.32 82.06 97.45 80.25 97.45"/><polygon class="cls-4" points="24.61 100.52 23.9 99.53 23.12 99.53 23.96 100.52 24.61 100.52"/><path class="cls-4" d="M23.52,101l-1.29,5.28h1l.21-1h1.24l.21,1h1L24.52,101Zm.07,3.44.21-1c.08-.37.16-.95.21-1.3h0c0,.35.13.93.21,1.3l.21,1Z"/><polygon class="cls-4" points="29.73 101.03 28.8 101.03 28.8 106.31 31.38 106.31 31.38 105.42 29.73 105.42 29.73 101.03"/><path class="cls-4" d="M33.21,101l-1.29,5.28h1l.21-1h1.24l.21,1h1L34.21,101Zm.07,3.44.21-1c.08-.37.16-.95.21-1.3h0c.05.35.13.93.21,1.3l.21,1Z"/><path class="cls-4" d="M41.05,103.09c-.11.28-.3.77-.37,1h0c-.07-.21-.25-.7-.36-1L39.43,101H38.5v5.28h.9v-1.66c0-.61,0-1.22-.07-1.81l0,0c.16.44.33.91.49,1.39l.36.93h.92l.35-.93c.17-.48.34-.95.49-1.39l0,0c0,.59,0,1.2-.08,1.81v1.66h.92V101h-1Z"/><polygon class="cls-4" points="45.21 104.05 46.8 104.05 46.8 103.21 45.21 103.21 45.21 101.9 46.94 101.9 46.94 101.03 44.28 101.03 44.28 106.31 47.01 106.31 47.01 105.43 45.21 105.43 45.21 104.05"/><path class="cls-4" d="M51.32,102.73a1.52,1.52,0,0,0-1.63-1.7H48.24v5.28h.93v-1.84h.42l.94,1.84h1l-1.06-2A1.61,1.61,0,0,0,51.32,102.73Zm-1.64.85h-.51v-1.67h.51c.45,0,.69.29.69.83S50.13,103.58,49.68,103.58Z"/><path class="cls-4" d="M56,101H54.59v5.28H56a1.55,1.55,0,0,0,1.64-1.73v-1.85A1.53,1.53,0,0,0,56,101Zm.73,3.54c0,.56-.25.85-.71.85h-.47v-3.51H56c.46,0,.71.28.71.82Z"/><path class="cls-4" d="M61.12,104.64c0,.56-.24.85-.66.85s-.67-.29-.67-.85V101h-.95v3.61a1.63,1.63,0,1,0,3.25,0V101h-1Z"/><path class="cls-4" d="M67.78,102.63c0,.49.06,1.34.13,1.93l0,0-.42-1.08L66.37,101h-.92v5.28h.91v-1.52c0-.55,0-1.45-.11-2l0,0c.14.4.33.88.49,1.29l1,2.3h.92V101h-.92Z"/><path class="cls-4" d="M71.66,100.94A1.59,1.59,0,0,0,70,102.72v1.89a1.67,1.67,0,1,0,3.33,0v-1.89A1.58,1.58,0,0,0,71.66,100.94Zm.7,3.67c0,.57-.24.89-.7.89s-.71-.32-.71-.89v-1.89c0-.57.24-.89.71-.89s.7.32.7.89Z"/><path class="cls-4" d="M77.69,102.73a1.52,1.52,0,0,0-1.63-1.7H74.61v5.28h.93v-1.84H76l.94,1.84h1l-1.06-2A1.61,1.61,0,0,0,77.69,102.73Zm-1.64.85h-.51v-1.67h.51c.45,0,.69.29.69.83S76.5,103.58,76.05,103.58Z"/><path class="cls-4" d="M80.33,101H79v5.28h1.4A1.55,1.55,0,0,0,82,104.58v-1.85A1.53,1.53,0,0,0,80.33,101Zm.72,3.54c0,.56-.24.85-.7.85h-.47v-3.51h.47c.46,0,.7.28.7.82Z"/><polyline class="cls-4" points="100.08 77.52 95.53 66.1 92.69 66.1 91.39 85 94.16 85 95.07 71.69 98.79 80.73 101.38 80.73 105.11 71.69 106.02 85 108.78 85 107.48 66.1 104.64 66.1 100.09 77.52"/><rect class="cls-9" x="147.6" width="137.36" height="137.33"/><polyline class="cls-10" points="261.62 46.33 266.4 42.9 260.52 42.9 258.7 37.31 256.87 42.9 250.99 42.9 255.77 46.33 253.92 51.96 258.7 48.51 263.48 51.96"/><polyline class="cls-10" points="243.06 28.59 247.84 25.13 241.96 25.13 240.14 19.54 238.31 25.13 232.43 25.13 237.21 28.59 235.36 34.19 240.14 30.76 244.92 34.19"/><polyline class="cls-10" points="219.16 22.27 223.91 18.78 218.03 18.78 216.2 13.18 214.38 18.78 208.49 18.78 213.24 22.27 211.42 27.84 216.2 24.38 220.95 27.84"/><polyline class="cls-10" points="193.93 28.59 198.71 25.13 192.8 25.13 190.97 19.54 189.15 25.13 183.3 25.13 188.05 28.59 186.22 34.19 190.97 30.76 195.75 34.19"/><polyline class="cls-10" points="175.94 47.24 180.72 43.76 174.81 43.76 172.98 38.18 171.16 43.76 165.28 43.76 170.06 47.24 168.23 52.85 172.98 49.39 177.76 52.85"/><polyline class="cls-10" points="170.18 71.75 174.93 68.26 169.05 68.26 167.22 62.66 165.4 68.26 159.52 68.26 164.3 71.75 162.48 77.35 167.22 73.86 172.01 77.35"/><polyline class="cls-10" points="176.13 96.53 180.88 93.08 175 93.08 173.17 87.47 171.34 93.08 165.46 93.08 170.21 96.53 168.42 102.17 173.17 98.71 177.92 102.17"/><polyline class="cls-10" points="193.93 114.18 198.71 110.72 192.8 110.72 190.97 105.09 189.15 110.72 183.3 110.72 188.05 114.18 186.22 119.78 190.97 116.29 195.75 119.78"/><polyline class="cls-10" points="219.16 120.75 223.91 117.27 218.03 117.27 216.2 111.66 214.38 117.27 208.49 117.27 213.24 120.75 211.42 126.33 216.2 122.86 220.95 126.33"/><polyline class="cls-10" points="243.69 114.09 248.47 110.6 242.53 110.6 240.74 105.03 238.88 110.6 233 110.6 237.78 114.09 235.96 119.68 240.74 116.23 245.52 119.68"/><polyline class="cls-10" points="261.5 96.38 266.28 92.88 260.36 92.88 258.57 87.32 256.71 92.88 250.83 92.88 255.61 96.38 253.79 101.98 258.57 98.52 263.35 101.98"/><polyline class="cls-10" points="268.07 71.4 272.85 67.92 266.97 67.92 265.14 62.31 263.29 67.92 257.44 67.92 262.19 71.4 260.36 76.98 265.14 73.54 269.89 76.98"/><path class="cls-4" d="M240.52,75.16h-7.11V44.61H219.74l-24.36,30.2v9.86h25.19V96.8h12.84V84.67h7.11V75.16Zm-35.09,0,15.14-18.84V75.16Z"/></g></g></svg>